# xmcd
#
# Track frame offsets: 
#        150
#        14218
#        29262
#        43458
#        56284
#        70492
#        84630
#        101413
#        113071
#        129029
#        143352
#
# Disc length: 2106 seconds
#
# Revision: 0
# Processed by: cddbd v1.5.2PL0 Copyright (c) Steve Scherf et al.
# Submitted via: ExactAudioCopy v1.0b4
#
DISCID=9008380b
DTITLE=Kris Kristofferson and Rita Coolidge - Breakaway
DYEAR=1974
DGENRE=
TTITLE0=Lover please
TTITLE1=We must have been out of our minds
TTITLE2=Dakota (The dancing bear)
TTITLE3=What'cha gonna do
TTITLE4=The things I might have been
TTITLE5=Slow down
TTITLE6=Rain
TTITLE7=Sweet susannah
TTITLE8=I've got to have you
TTITLE9=I'd rather be sorry
TTITLE10=Crippled crow
EXTD=
EXTT0=
EXTT1=
EXTT2=
EXTT3=
EXTT4=
EXTT5=
EXTT6=
EXTT7=
EXTT8=
EXTT9=
EXTT10=
PLAYORDER=
